<?xml version="1.0" encoding="UTF-8"?>
<svg width="12px" height="12px" viewBox="0 0 12 12" version="1.1" xmlns="http://www.w3.org/2000/svg" xmlns:xlink="http://www.w3.org/1999/xlink">
    <!-- Generator: Sketch 52.6 (67491) - http://www.bohemiancoding.com/sketch -->
    <title></title>
    <desc>Created with Sketch.</desc>
    <g id="Notes" stroke="none" stroke-width="1" fill="none" fill-rule="evenodd">
        <g id="Issues-/-Summary-empty-Top-" transform="translate(-782.000000, -243.000000)" fill="#666666">
            <g id="Sub-Issues" transform="translate(270.000000, 236.000000)">
                <g id="Tab-/-Elements-/-Text-Tab-/-Active-/-Enabled-Copy-4" transform="translate(505.000000, 0.000000)">
                    <g id="↳-Tab-Text-Color-&amp;-Style" transform="translate(7.000000, 5.000000)">
                        <g id="Group-2">
                            <path d="M10.5,9.5 L11.25,9.5 L11.25,14 L0.75,14 L0.75,5.75 L1.5,5.75 L1.5,3.5 L2.25,3.5 L2.25,2 L10.5,2 L10.5,9.5 Z M3,2.75 L3,3.5 L9,3.5 L9,9.5 L9.75,9.5 L9.75,2.75 L3,2.75 Z M2.25,4.25 L2.25,5.75 L4.28320312,5.75 L8.03320312,9.5 L8.25,9.5 L8.25,4.25 L2.25,4.25 Z M10.5,13.25 L10.5,10.25 L7.71679688,10.25 L3.96679688,6.5 L1.5,6.5 L1.5,13.25 L10.5,13.25 Z" id=""></path>
                        </g>
                    </g>
                </g>
            </g>
        </g>
    </g>
</svg>