<?xml version="1.0" encoding="UTF-8"?>
<svg width="9px" height="12px" viewBox="0 0 9 12" version="1.1" xmlns="http://www.w3.org/2000/svg" xmlns:xlink="http://www.w3.org/1999/xlink">
    <!-- Generator: Sketch 52.6 (67491) - http://www.bohemiancoding.com/sketch -->
    <title></title>
    <desc>Created with Sketch.</desc>
    <g id="Notes" stroke="none" stroke-width="1" fill="none" fill-rule="evenodd">
        <g id="Issues-/-Summary-empty-Top-" transform="translate(-585.000000, -243.000000)" fill="#666666">
            <g id="Sub-Issues" transform="translate(270.000000, 236.000000)">
                <g id="Tab-/-Elements-/-Text-Tab-/-Active-/-Enabled-Copy-2" transform="translate(307.000000, 0.000000)">
                    <g id="↳-Tab-Text-Color-&amp;-Style" transform="translate(7.000000, 5.000000)">
                        <g id="Group-2">
                            <path d="M5.625,2 C6.00390814,2 6.36913887,2.04882764 6.72070312,2.14648438 C7.07226738,2.24414111 7.40136565,2.3828116 7.70800781,2.5625 C8.01464997,2.7421884 8.2929675,2.95703 8.54296875,3.20703125 C8.79297,3.4570325 9.0078116,3.73535003 9.1875,4.04199219 C9.3671884,4.34863435 9.50585889,4.67773262 9.60351562,5.02929688 C9.70117236,5.38086113 9.75,5.74609186 9.75,6.125 C9.75,6.69140908 9.6425792,7.21679445 9.42773438,7.70117188 C9.21288955,8.1855493 8.90625199,8.62499803 8.5078125,9.01953125 C8.18359213,9.33984535 7.93457118,9.69726365 7.76074219,10.0917969 C7.58691319,10.4863301 7.5,10.9140602 7.5,11.375 L7.5,12.875 C7.5,13.0312508 7.47070342,13.1777337 7.41210938,13.3144531 C7.35351533,13.4511726 7.27343801,13.570312 7.171875,13.671875 C7.07031199,13.773438 6.95117256,13.8535153 6.81445312,13.9121094 C6.67773369,13.9707034 6.53125078,14 6.375,14 L4.875,14 C4.71874922,14 4.57226631,13.9707034 4.43554688,13.9121094 C4.29882744,13.8535153 4.17968801,13.773438 4.078125,13.671875 C3.97656199,13.570312 3.89648467,13.4511726 3.83789062,13.3144531 C3.77929658,13.1777337 3.75,13.0312508 3.75,12.875 L3.75,11.375 C3.75,10.9140602 3.66308681,10.4863301 3.48925781,10.0917969 C3.31542882,9.69726365 3.06640787,9.33984535 2.7421875,9.01953125 C2.34374801,8.62499803 2.03711045,8.1855493 1.82226562,7.70117188 C1.6074208,7.21679445 1.5,6.69140908 1.5,6.125 C1.5,5.74609186 1.54882764,5.38086113 1.64648438,5.02929688 C1.74414111,4.67773262 1.8828116,4.34863435 2.0625,4.04199219 C2.2421884,3.73535003 2.45703,3.4570325 2.70703125,3.20703125 C2.9570325,2.95703 3.23535003,2.7421884 3.54199219,2.5625 C3.84863435,2.3828116 4.17773262,2.24414111 4.52929688,2.14648438 C4.88086113,2.04882764 5.24609186,2 5.625,2 Z M6.375,13.25 C6.47656301,13.25 6.56445275,13.212891 6.63867188,13.1386719 C6.712891,13.0644528 6.75,12.976563 6.75,12.875 L6.75,11.75 L4.5,11.75 L4.5,12.875 C4.5,12.976563 4.537109,13.0644528 4.61132812,13.1386719 C4.68554725,13.212891 4.77343699,13.25 4.875,13.25 L6.375,13.25 Z M6.76757812,11 C6.81835963,10.4960912 6.94726459,10.0390646 7.15429688,9.62890625 C7.36132916,9.21874795 7.64062324,8.83593928 7.9921875,8.48046875 C8.31640787,8.15234211 8.56542882,7.79394726 8.73925781,7.40527344 C8.91308681,7.01659962 9,6.58984607 9,6.125 C9,5.66015393 8.9111337,5.2226583 8.73339844,4.8125 C8.55566317,4.4023417 8.31445465,4.0449234 8.00976562,3.74023438 C7.7050766,3.43554535 7.3476583,3.19433683 6.9375,3.01660156 C6.5273417,2.8388663 6.08984607,2.75 5.625,2.75 C5.16015393,2.75 4.7226583,2.8388663 4.3125,3.01660156 C3.9023417,3.19433683 3.5449234,3.43554535 3.24023438,3.74023438 C2.93554535,4.0449234 2.69433683,4.4023417 2.51660156,4.8125 C2.3388663,5.2226583 2.25,5.66015393 2.25,6.125 C2.25,6.58984607 2.33691319,7.01659962 2.51074219,7.40527344 C2.68457118,7.79394726 2.93359213,8.15234211 3.2578125,8.48046875 C3.60937676,8.83593928 3.88867084,9.21874795 4.09570312,9.62890625 C4.30273541,10.0390646 4.43164037,10.4960912 4.48242188,11 L6.76757812,11 Z" id=""></path>
                        </g>
                    </g>
                </g>
            </g>
        </g>
    </g>
</svg>