<?xml version="1.0" encoding="UTF-8"?>
<svg width="12px" height="9px" viewBox="0 0 12 9" version="1.1" xmlns="http://www.w3.org/2000/svg" xmlns:xlink="http://www.w3.org/1999/xlink">
    <!-- Generator: Sketch 52.6 (67491) - http://www.bohemiancoding.com/sketch -->
    <title></title>
    <desc>Created with Sketch.</desc>
    <g id="Notes" stroke="none" stroke-width="1" fill="none" fill-rule="evenodd">
        <g id="Issues-/-Summary-empty-Top-" transform="translate(-319.000000, -244.000000)" fill="#37474F">
            <g id="Sub-Issues" transform="translate(270.000000, 236.000000)">
                <g id="Tab-/-Elements-/-Text-Tab-/-Active-/-Enabled" transform="translate(42.000000, 0.000000)">
                    <g id="↳-Tab-Text-Color-&amp;-Style" transform="translate(7.000000, 5.000000)">
                        <g id="Group-2">
                            <path d="M12,8 L12,11.75 L4.5,11.75 L4.5,10.25 L1.5,10.25 L1.5,7.25 L0,7.25 L0,3.5 L7.5,3.5 L7.5,7.25 L2.25,7.25 L2.25,9.5 L4.5,9.5 L4.5,8 L12,8 Z M0.75,6.5 L6.75,6.5 L6.75,4.25 L0.75,4.25 L0.75,6.5 Z M11.25,8.75 L5.25,8.75 L5.25,11 L11.25,11 L11.25,8.75 Z" id=""></path>
                        </g>
                    </g>
                </g>
            </g>
        </g>
    </g>
</svg>