<?xml version="1.0" encoding="UTF-8"?>
<svg width="12px" height="10px" viewBox="0 0 12 10" version="1.1" xmlns="http://www.w3.org/2000/svg" xmlns:xlink="http://www.w3.org/1999/xlink">
    <!-- Generator: Sketch 52.6 (67491) - http://www.bohemiancoding.com/sketch -->
    <title></title>
    <desc>Created with Sketch.</desc>
    <g id="Notes" stroke="none" stroke-width="1" fill="none" fill-rule="evenodd">
        <g id="Issues-/-Summary-empty-Top-" transform="translate(-678.000000, -244.000000)" fill="#666666">
            <g id="Sub-Issues" transform="translate(270.000000, 236.000000)">
                <g id="Tab-/-Elements-/-Text-Tab-/-Active-/-Enabled-Copy-3" transform="translate(401.000000, 0.000000)">
                    <g id="↳-Tab-Text-Color-&amp;-Style" transform="translate(7.000000, 5.000000)">
                        <g id="Group-2">
                            <path d="M10.8398438,6.03125 C11.0156259,6.12890674 11.1757805,6.24902272 11.3203125,6.39160156 C11.4648445,6.5341804 11.5869136,6.69042884 11.6865234,6.86035156 C11.7861333,7.03027429 11.863281,7.2119131 11.9179688,7.40527344 C11.9726565,7.59863378 12,7.79687398 12,8 L11.25,8 C11.25,7.79687398 11.2099613,7.60351654 11.1298828,7.41992188 C11.0498043,7.23632721 10.9423835,7.07714911 10.8076172,6.94238281 C10.6728509,6.80761651 10.5136728,6.70019571 10.3300781,6.62011719 C10.1464835,6.54003866 9.95312602,6.5 9.75,6.5 C9.54296771,6.5 9.34863372,6.54003866 9.16699219,6.62011719 C8.98535065,6.70019571 8.82714911,6.80761651 8.69238281,6.94238281 C8.55761651,7.07714911 8.45019571,7.23632721 8.37011719,7.41992188 C8.29003866,7.60351654 8.25,7.79687398 8.25,8 C8.25,8.35547053 8.16894612,8.69335777 8.00683594,9.01367188 C7.84472575,9.33398598 7.62109518,9.59960832 7.3359375,9.81054688 C7.58984502,9.93945377 7.81933491,10.0986319 8.02441406,10.2880859 C8.22949321,10.47754 8.40429615,10.6884754 8.54882812,10.9208984 C8.6933601,11.1533215 8.80468711,11.403319 8.8828125,11.6708984 C8.96093789,11.9384779 9,12.2148423 9,12.5 L8.25,12.5 C8.25,12.1914047 8.19043028,11.900392 8.07128906,11.6269531 C7.95214784,11.3535143 7.79101664,11.1152354 7.58789062,10.9121094 C7.38476461,10.7089834 7.14648574,10.5478522 6.87304688,10.4287109 C6.59960801,10.3095697 6.30859529,10.25 6,10.25 C5.69140471,10.25 5.40039199,10.3095697 5.12695312,10.4287109 C4.85351426,10.5478522 4.61523539,10.7089834 4.41210938,10.9121094 C4.20898336,11.1152354 4.04785216,11.3535143 3.92871094,11.6269531 C3.80956972,11.900392 3.75,12.1914047 3.75,12.5 L3,12.5 C3,12.2148423 3.03906211,11.9384779 3.1171875,11.6708984 C3.19531289,11.403319 3.3066399,11.1533215 3.45117188,10.9208984 C3.59570385,10.6884754 3.77050679,10.47754 3.97558594,10.2880859 C4.18066509,10.0986319 4.41015498,9.93945377 4.6640625,9.81054688 C4.37890482,9.59960832 4.15527425,9.33398598 3.99316406,9.01367188 C3.83105388,8.69335777 3.75,8.35547053 3.75,8 C3.75,7.79687398 3.70996134,7.60351654 3.62988281,7.41992188 C3.54980429,7.23632721 3.44238349,7.07714911 3.30761719,6.94238281 C3.17285089,6.80761651 3.01367279,6.70019571 2.83007812,6.62011719 C2.64648346,6.54003866 2.45312602,6.5 2.25,6.5 C2.04296771,6.5 1.84863372,6.54003866 1.66699219,6.62011719 C1.48535065,6.70019571 1.32714911,6.80761651 1.19238281,6.94238281 C1.05761651,7.07714911 0.950195713,7.23632721 0.870117188,7.41992188 C0.790038662,7.60351654 0.75,7.79687398 0.75,8 L0,8 C0,7.79687398 0.0273434766,7.59863378 0.08203125,7.40527344 C0.136719023,7.2119131 0.213866689,7.03027429 0.313476562,6.86035156 C0.413086436,6.69042884 0.535155527,6.5341804 0.6796875,6.39160156 C0.824219473,6.24902272 0.984374121,6.12890674 1.16015625,6.03125 C1.03124936,5.89453057 0.930664424,5.73632902 0.858398438,5.55664062 C0.786132451,5.37695223 0.75,5.19140721 0.75,5 C0.75,4.79687398 0.790038662,4.60351654 0.870117188,4.41992188 C0.950195713,4.23632721 1.05761651,4.07714911 1.19238281,3.94238281 C1.32714911,3.80761651 1.48535065,3.70019571 1.66699219,3.62011719 C1.84863372,3.54003866 2.04296771,3.5 2.25,3.5 C2.45312602,3.5 2.64648346,3.54003866 2.83007812,3.62011719 C3.01367279,3.70019571 3.17285089,3.80761651 3.30761719,3.94238281 C3.44238349,4.07714911 3.54980429,4.23632721 3.62988281,4.41992188 C3.70996134,4.60351654 3.75,4.79687398 3.75,5 C3.75,5.19140721 3.71386755,5.37695223 3.64160156,5.55664062 C3.56933558,5.73632902 3.46875064,5.89453057 3.33984375,6.03125 C3.66015785,6.20703213 3.92187398,6.44921721 4.125,6.7578125 C4.33593855,6.44531094 4.60644366,6.19921965 4.93652344,6.01953125 C5.26660321,5.83984285 5.62109186,5.75 6,5.75 C6.37890814,5.75 6.73339679,5.83984285 7.06347656,6.01953125 C7.39355634,6.19921965 7.66406145,6.44531094 7.875,6.7578125 C8.07812602,6.44921721 8.33984215,6.20703213 8.66015625,6.03125 C8.53124936,5.89453057 8.43066442,5.73632902 8.35839844,5.55664062 C8.28613245,5.37695223 8.25,5.19140721 8.25,5 C8.25,4.79687398 8.29003866,4.60351654 8.37011719,4.41992188 C8.45019571,4.23632721 8.55761651,4.07714911 8.69238281,3.94238281 C8.82714911,3.80761651 8.98535065,3.70019571 9.16699219,3.62011719 C9.34863372,3.54003866 9.54296771,3.5 9.75,3.5 C9.95312602,3.5 10.1464835,3.54003866 10.3300781,3.62011719 C10.5136728,3.70019571 10.6728509,3.80761651 10.8076172,3.94238281 C10.9423835,4.07714911 11.0498043,4.23632721 11.1298828,4.41992188 C11.2099613,4.60351654 11.25,4.79687398 11.25,5 C11.25,5.19140721 11.2138675,5.37695223 11.1416016,5.55664062 C11.0693356,5.73632902 10.9687506,5.89453057 10.8398438,6.03125 Z M1.5,5 C1.5,5.10546928 1.51953105,5.20312455 1.55859375,5.29296875 C1.59765645,5.38281295 1.65136685,5.46191372 1.71972656,5.53027344 C1.78808628,5.59863315 1.86718705,5.65234355 1.95703125,5.69140625 C2.04687545,5.73046895 2.14453072,5.75 2.25,5.75 C2.35546928,5.75 2.45312455,5.73046895 2.54296875,5.69140625 C2.63281295,5.65234355 2.71191372,5.59863315 2.78027344,5.53027344 C2.84863315,5.46191372 2.90234355,5.38281295 2.94140625,5.29296875 C2.98046895,5.20312455 3,5.10546928 3,5 C3,4.89453072 2.98046895,4.79687545 2.94140625,4.70703125 C2.90234355,4.61718705 2.84863315,4.53808628 2.78027344,4.46972656 C2.71191372,4.40136685 2.63281295,4.34765645 2.54296875,4.30859375 C2.45312455,4.26953105 2.35546928,4.25 2.25,4.25 C2.14453072,4.25 2.04687545,4.26953105 1.95703125,4.30859375 C1.86718705,4.34765645 1.78808628,4.40136685 1.71972656,4.46972656 C1.65136685,4.53808628 1.59765645,4.61718705 1.55859375,4.70703125 C1.51953105,4.79687545 1.5,4.89453072 1.5,5 Z M6,9.5 C6.20312602,9.5 6.39648346,9.45996134 6.58007812,9.37988281 C6.76367279,9.29980429 6.92285089,9.19238349 7.05761719,9.05761719 C7.19238349,8.92285089 7.29980429,8.76464935 7.37988281,8.58300781 C7.45996134,8.40136628 7.5,8.20703229 7.5,8 C7.5,7.79687398 7.45996134,7.60351654 7.37988281,7.41992188 C7.29980429,7.23632721 7.19238349,7.07714911 7.05761719,6.94238281 C6.92285089,6.80761651 6.76367279,6.70019571 6.58007812,6.62011719 C6.39648346,6.54003866 6.20312602,6.5 6,6.5 C5.79296771,6.5 5.59863372,6.54003866 5.41699219,6.62011719 C5.23535065,6.70019571 5.07714911,6.80761651 4.94238281,6.94238281 C4.80761651,7.07714911 4.70019571,7.23632721 4.62011719,7.41992188 C4.54003866,7.60351654 4.5,7.79687398 4.5,8 C4.5,8.20703229 4.54003866,8.40136628 4.62011719,8.58300781 C4.70019571,8.76464935 4.80761651,8.92285089 4.94238281,9.05761719 C5.07714911,9.19238349 5.23535065,9.29980429 5.41699219,9.37988281 C5.59863372,9.45996134 5.79296771,9.5 6,9.5 Z M9,5 C9,5.10546928 9.01953105,5.20312455 9.05859375,5.29296875 C9.09765645,5.38281295 9.15136685,5.46191372 9.21972656,5.53027344 C9.28808628,5.59863315 9.36718705,5.65234355 9.45703125,5.69140625 C9.54687545,5.73046895 9.64453072,5.75 9.75,5.75 C9.85546928,5.75 9.95312455,5.73046895 10.0429688,5.69140625 C10.1328129,5.65234355 10.2119137,5.59863315 10.2802734,5.53027344 C10.3486332,5.46191372 10.4023436,5.38281295 10.4414062,5.29296875 C10.4804689,5.20312455 10.5,5.10546928 10.5,5 C10.5,4.89453072 10.4804689,4.79687545 10.4414062,4.70703125 C10.4023436,4.61718705 10.3486332,4.53808628 10.2802734,4.46972656 C10.2119137,4.40136685 10.1328129,4.34765645 10.0429688,4.30859375 C9.95312455,4.26953105 9.85546928,4.25 9.75,4.25 C9.64453072,4.25 9.54687545,4.26953105 9.45703125,4.30859375 C9.36718705,4.34765645 9.28808628,4.40136685 9.21972656,4.46972656 C9.15136685,4.53808628 9.09765645,4.61718705 9.05859375,4.70703125 C9.01953105,4.79687545 9,4.89453072 9,5 Z" id=""></path>
                        </g>
                    </g>
                </g>
            </g>
        </g>
    </g>
</svg>