<?xml version="1.0" encoding="UTF-8"?>
<svg width="12px" height="12px" viewBox="0 0 12 12" version="1.1" xmlns="http://www.w3.org/2000/svg" xmlns:xlink="http://www.w3.org/1999/xlink">
    <!-- Generator: Sketch 52.6 (67491) - http://www.bohemiancoding.com/sketch -->
    <title></title>
    <desc>Created with Sketch.</desc>
    <g id="Notes" stroke="none" stroke-width="1" fill="none" fill-rule="evenodd">
        <g id="Issues-/-Summary-empty-Top-" transform="translate(-453.000000, -243.000000)" fill="#666666">
            <g id="Sub-Issues" transform="translate(270.000000, 236.000000)">
                <g id="Tab-/-Elements-/-Text-Tab-/-Active-/-Enabled-Copy" transform="translate(176.000000, 0.000000)">
                    <g id="↳-Tab-Text-Color-&amp;-Style" transform="translate(7.000000, 5.000000)">
                        <g id="Group-2">
                            <path d="M8.03320312,11 L5.78320312,13.25 L9.75,13.25 L9.75,11.75 L10.5,11.75 L10.5,14 L0.75,14 L0.75,2 L7.28320312,2 L9.75,4.46679688 L9.75,4.99414062 L9.22265625,4.99414062 L7.5,3.28320312 L7.5,5 L6.75,5 L6.75,2.75 L1.5,2.75 L1.5,13.25 L5.625,13.25 L5.625,11 L4.5,11 L4.5,5.75 L12,5.75 L12,11 L8.03320312,11 Z M7.71679688,10.25 L11.25,10.25 L11.25,6.5 L5.25,6.5 L5.25,10.25 L6.375,10.25 L6.375,11.5976562 L7.71679688,10.25 Z M6,7.25 L10.5,7.25 L10.5,8 L6,8 L6,7.25 Z M6,8.75 L10.5,8.75 L10.5,9.5 L6,9.5 L6,8.75 Z" id=""></path>
                        </g>
                    </g>
                </g>
            </g>
        </g>
    </g>
</svg>